# This file uses centimeters as units for non-parametric coordinates.

mtllib obilisk_top.mtl
g default
v 0.291744 0.000000 0.708256
v 0.708256 0.000000 0.708256
v 0.291744 0.000000 0.291744
v 0.708256 0.000000 0.291744
v 0.403830 1.000000 0.596170
v 0.596170 1.000000 0.596170
v 0.403830 1.000000 0.403830
v 0.596170 1.000000 0.403830
v 0.292643 0.766566 0.292643
v 0.292643 0.766566 0.707357
v 0.707357 0.766566 0.707357
v 0.707357 0.766566 0.292643
vt 0.289598 0.716237
vt 0.710402 0.716237
vt 0.710658 0.998435
vt 0.289342 0.998435
vt 0.284490 0.284490
vt 0.715510 0.284490
vt 0.715510 0.715510
vt 0.284490 0.715510
vt 0.289342 0.998435
vt 0.710658 0.998435
vt 0.710402 0.716237
vt 0.289598 0.716237
vt 0.286543 0.716237
vt 0.713457 0.716237
vt 0.710658 0.998435
vt 0.289342 0.998435
vt 0.713457 0.716237
vt 0.286543 0.716237
vt 0.289342 0.998435
vt 0.710658 0.998435
vt 0.710267 0.000000
vt 0.289733 0.000000
vt 0.289733 0.000000
vt 0.710267 0.000000
vt 0.289733 0.000000
vt 0.710267 0.000000
vt 0.710267 0.000000
vt 0.289733 0.000000
vn 0.000000 0.430022 0.902819
vn 0.000000 0.430022 0.902819
vn 0.000000 0.430022 0.902819
vn 0.000000 0.430022 0.902819
vn 0.000000 1.000000 0.000000
vn 0.000000 1.000000 0.000000
vn 0.000000 1.000000 0.000000
vn 0.000000 1.000000 0.000000
vn 0.000000 0.430021 -0.902819
vn 0.000000 0.430021 -0.902819
vn 0.000000 0.430021 -0.902819
vn 0.000000 0.430021 -0.902819
vn 0.902819 0.430021 0.000000
vn 0.902819 0.430021 0.000000
vn 0.902819 0.430021 0.000000
vn 0.902819 0.430021 0.000000
vn -0.902819 0.430021 0.000000
vn -0.902819 0.430021 0.000000
vn -0.902819 0.430021 0.000000
vn -0.902819 0.430021 0.000000
vn -0.999999 0.001172 0.000000
vn -0.999999 0.001172 0.000000
vn -0.999999 0.001172 0.000000
vn -0.999999 0.001172 0.000000
vn 0.000000 0.001172 0.999999
vn 0.000000 0.001172 0.999999
vn 0.000000 0.001172 0.999999
vn 0.000000 0.001172 0.999999
vn 0.999999 0.001172 0.000000
vn 0.999999 0.001172 0.000000
vn 0.999999 0.001172 0.000000
vn 0.999999 0.001172 0.000000
vn 0.000000 0.001172 -0.999999
vn 0.000000 0.001172 -0.999999
vn 0.000000 0.001172 -0.999999
vn 0.000000 0.001172 -0.999999
s off
g polySurface5 polySurface4 pCube5
usemtl initialShadingGroup
f 10/1/1 11/2/2 6/3/3 5/4/4
usemtl phong2SG
f 5/5/5 6/6/6 8/7/7 7/8/8
usemtl initialShadingGroup
f 7/9/9 8/10/10 12/11/11 9/12/12
f 11/13/13 12/14/14 8/15/15 6/16/16
f 9/17/17 10/18/18 5/19/19 7/20/20
f 3/21/21 1/22/22 10/18/23 9/17/24
f 1/23/25 2/24/26 11/2/27 10/1/28
f 2/25/29 4/26/30 12/14/31 11/13/32
f 9/12/33 12/11/34 4/27/35 3/28/36
