# This file uses centimeters as units for non-parametric coordinates.

mtllib obilisk_bottom.mtl
g default
v 0.293166 1.000000 0.706834
v 0.706834 1.000000 0.706834
v 0.293166 1.000000 0.293166
v 0.706834 1.000000 0.293166
v 0.000000 0.000000 1.000000
v 1.000000 0.000000 1.000000
v 0.000000 0.000000 0.000000
v 1.000000 0.000000 0.000000
v 0.292142 0.500000 0.707858
v 0.707858 0.500000 0.707858
v 0.707858 0.500000 0.292142
v 0.292142 0.500000 0.292142
vt 0.292142 0.500000
vt 0.707858 0.500000
vt 0.710658 0.998435
vt 0.289342 0.998435
vt 0.289342 0.998435
vt 0.710658 0.998435
vt 0.707858 0.500000
vt 0.292142 0.500000
vt 0.000000 1.000000
vt 1.000000 1.000000
vt 1.000000 0.000000
vt 0.000000 0.000000
vt 0.292142 0.500000
vt 0.707858 0.500000
vt 0.710658 0.998435
vt 0.289342 0.998435
vt 0.707858 0.500000
vt 0.292142 0.500000
vt 0.289342 0.998435
vt 0.710658 0.998435
vt 0.000000 0.198843
vt 1.000000 0.198843
vt 0.000000 0.198843
vt 1.000000 0.198843
vt 1.000000 0.198843
vt 0.000000 0.198843
vt 1.000000 0.198843
vt 0.000000 0.198843
vn 0.000000 0.002048 0.999998
vn 0.000000 0.002048 0.999998
vn 0.000000 0.002048 0.999998
vn 0.000000 0.002048 0.999998
vn 0.000000 0.002048 -0.999998
vn 0.000000 0.002048 -0.999998
vn 0.000000 0.002048 -0.999998
vn 0.000000 0.002048 -0.999998
vn 0.000000 -1.000000 0.000000
vn 0.000000 -1.000000 0.000000
vn 0.000000 -1.000000 0.000000
vn 0.000000 -1.000000 0.000000
vn 0.999998 0.002048 0.000000
vn 0.999998 0.002048 0.000000
vn 0.999998 0.002048 0.000000
vn 0.999998 0.002048 0.000000
vn -0.999998 0.002048 0.000000
vn -0.999998 0.002048 0.000000
vn -0.999998 0.002048 0.000000
vn -0.999998 0.002048 0.000000
vn 0.000000 0.504483 0.863422
vn 0.000000 0.504483 0.863422
vn 0.000000 0.504483 0.863422
vn 0.000000 0.504483 0.863422
vn 0.863422 0.504483 0.000000
vn 0.863422 0.504483 0.000000
vn 0.863422 0.504483 0.000000
vn 0.863422 0.504483 0.000000
vn 0.000000 0.504483 -0.863422
vn 0.000000 0.504483 -0.863422
vn 0.000000 0.504483 -0.863422
vn 0.000000 0.504483 -0.863422
vn -0.863422 0.504483 0.000000
vn -0.863422 0.504483 0.000000
vn -0.863422 0.504483 0.000000
vn -0.863422 0.504483 0.000000
s off
g polySurface6 polySurface4 pCube5
usemtl initialShadingGroup
f 9/1/1 10/2/2 2/3/3 1/4/4
f 3/5/5 4/6/6 11/7/7 12/8/8
usemtl phong2SG
f 7/9/9 8/10/10 6/11/11 5/12/12
usemtl initialShadingGroup
f 10/13/13 11/14/14 4/15/15 2/16/16
f 12/17/17 9/18/18 1/19/19 3/20/20
f 5/21/21 6/22/22 10/2/23 9/1/24
f 6/23/25 8/24/26 11/14/27 10/13/28
f 12/8/29 11/7/30 8/25/31 7/26/32
f 7/27/33 5/28/34 9/18/35 12/17/36
