# This file uses centimeters as units for non-parametric coordinates.

mtllib obilisk_top.mtl
g default
v 0.403830 1.000000 0.596170
v 0.596170 1.000000 0.596170
v 0.403830 1.000000 0.403830
v 0.596170 1.000000 0.403830
v 0.292643 0.766566 0.292643
v 0.292643 0.766566 0.707357
v 0.707357 0.766566 0.707357
v 0.707357 0.766566 0.292643
v 0.292392 0.000000 0.292392
v 0.292392 0.000000 0.707608
v 0.707608 0.000000 0.707608
v 0.707608 0.000000 0.292392
vt 0.289598 0.716237
vt 0.710402 0.716237
vt 0.710402 0.996871
vt 0.289598 0.996871
vt 0.284490 0.284490
vt 0.715510 0.284490
vt 0.715510 0.715510
vt 0.284490 0.715510
vt 0.289598 0.996871
vt 0.710402 0.996871
vt 0.710402 0.716237
vt 0.289598 0.716237
vt 0.286543 0.716237
vt 0.713457 0.716237
vt 0.713457 0.996871
vt 0.286543 0.996871
vt 0.713457 0.716237
vt 0.286543 0.716237
vt 0.286543 0.996871
vt 0.713457 0.996871
vt 0.713457 0.000000
vt 0.286543 0.000000
vt 0.289598 0.000000
vt 0.710402 0.000000
vt 0.286543 0.000000
vt 0.713457 0.000000
vt 0.710402 0.000000
vt 0.289598 0.000000
vn 0.000000 0.430021 0.902819
vn 0.000000 0.430021 0.902819
vn 0.000000 0.430021 0.902819
vn 0.000000 0.430021 0.902819
vn 0.000000 1.000000 0.000000
vn 0.000000 1.000000 0.000000
vn 0.000000 1.000000 0.000000
vn 0.000000 1.000000 0.000000
vn 0.000000 0.430021 -0.902819
vn 0.000000 0.430021 -0.902819
vn 0.000000 0.430021 -0.902819
vn 0.000000 0.430021 -0.902819
vn 0.902819 0.430021 0.000000
vn 0.902819 0.430021 0.000000
vn 0.902819 0.430021 0.000000
vn 0.902819 0.430021 0.000000
vn -0.902819 0.430021 0.000000
vn -0.902819 0.430021 0.000000
vn -0.902819 0.430021 0.000000
vn -0.902819 0.430021 0.000000
vn -1.000000 0.000327 0.000000
vn -1.000000 0.000327 0.000000
vn -1.000000 0.000327 0.000000
vn -1.000000 0.000327 0.000000
vn 0.000000 0.000327 1.000000
vn 0.000000 0.000327 1.000000
vn 0.000000 0.000327 1.000000
vn 0.000000 0.000327 1.000000
vn 1.000000 0.000327 0.000000
vn 1.000000 0.000327 0.000000
vn 1.000000 0.000327 0.000000
vn 1.000000 0.000327 0.000000
vn 0.000000 0.000327 -1.000000
vn 0.000000 0.000327 -1.000000
vn 0.000000 0.000327 -1.000000
vn 0.000000 0.000327 -1.000000
s off
g polySurface2 pCube3
usemtl initialShadingGroup
f 6/1/1 7/2/2 2/3/3 1/4/4
usemtl phong2SG
f 1/5/5 2/6/6 4/7/7 3/8/8
usemtl initialShadingGroup
f 3/9/9 4/10/10 8/11/11 5/12/12
f 7/13/13 8/14/14 4/15/15 2/16/16
f 5/17/17 6/18/18 1/19/19 3/20/20
f 9/21/21 10/22/22 6/18/23 5/17/24
f 10/23/25 11/24/26 7/2/27 6/1/28
f 11/25/29 12/26/30 8/14/31 7/13/32
f 5/12/33 8/11/34 12/27/35 9/28/36
